<svg version="1.0" xmlns="http://www.w3.org/2000/svg" width="400" height="400" viewBox="0 0 300 300"><path d="M122.5 2.6C82.4 9.7 46 33.7 23.7 67.5 13.2 83.4 6.6 99.1 3.1 116.7c-1.8 8.8-3 26.5-1.6 25.2.2-.3 1.2-5.4 2.1-11.5 2-13.4 5.3-26.8 8.9-36C17.7 81.2 27.6 64.9 35.7 56c1.7-1.9 4.1-4.7 5.2-6.1 3-3.9 17.6-16 26.1-21.6 19.1-12.8 40.5-20.4 66.3-23.8 14.7-1.9 18.7-1.9 33.4 0 15.1 2 26.3 4.7 38.8 9.6 34.2 13.2 61.6 38.5 77.6 71.4 7 14.5 10.2 25.3 12.9 43.2 1.1 7.5 2.2 13.8 2.5 14.1 1.1 1.2.4-16.1-1.1-23.8-6.5-34.7-27.1-67-56.9-89.3-17.1-12.8-42.1-23.5-63.4-27.1-12-2-43.1-2-54.6 0zM17.9 13.7l-3.4 3.8 3.8-3.4c3.4-3.3 4.2-4.1 3.4-4.1-.2 0-1.9 1.7-3.8 3.7zM230.9 11.7c-1.3 1.6-1.2 1.7.4.4.9-.7 1.7-1.5 1.7-1.7 0-.8-.8-.3-2.1 1.3zM11.4 20.2l-1.9 2.3 2.3-1.9c2.1-1.8 2.7-2.6 1.9-2.6-.2 0-1.2 1-2.3 2.2z"/><path d="M221.4 94c-3.2 1.6-15 9.7-26.1 18l-20.2 15.1-16.3-12.2c-19.9-14.9-24.5-17.2-34.4-17.2-6.2 0-8.3.5-13.8 3.2-3.9 1.9-8.1 5-10.5 7.7-5.2 5.9-38.3 58.6-43 68.3-4.8 10.1-5.5 19.7-1.9 25.1 5 7.4 12.9 8.7 23.1 3.7 2.9-1.5 14-9.2 24.7-17.3 10.7-8 20-14.8 20.7-15.1 1-.4 6.6 3.2 11.9 7.6 8.5 7.1 24 17.5 28.6 19.2 12.2 4.5 26.2.9 34.9-8.9 3.1-3.5 29.6-44.8 40.7-63.3 4.4-7.3 7.4-17.1 7-22.5-1.1-12.8-12.4-18-25.4-11.4zm19.9 4c2.8 3.1 2.9 3.7 2.5 9.9-.4 5.1-1.4 8.4-4.6 14.7-5.4 10.7-38.5 63-42.5 67.2-4.3 4.4-12.3 8.2-18.9 8.9-9.8 1-14.7-1.2-34-15.5-9.6-7.1-17.9-13.2-18.6-13.6-.8-.5-8.8 5-22 14.9-11.3 8.5-23.1 16.8-26 18.2-13.6 6.7-24.1-.1-21.4-13.7 1.6-7.8 6.5-16.8 26.1-48 18.6-29.7 23.5-35.6 31.7-38.4 6-2 15.7-2.1 21.5-.1 2.4.9 12.4 7.5 22.4 14.9l17.9 13.3 20.6-15.5c23.8-18 30.2-21.5 37.4-20.9 4.1.4 5.5 1 7.9 3.7z"/><path d="M132.4 110.2l-1.9 2.3 2.3-1.9c1.2-1.1 2.2-2.1 2.2-2.3 0-.8-.8-.2-2.6 1.9zM219.9 118.7c-.8.9-10.4 8.4-21.4 16.7-15.7 11.8-20.6 15-23.1 15-2.4 0-7.5-3.3-23.5-15.2-11.2-8.4-22-15.7-24.1-16.3-4.4-1.4-7.8-.7-11.3 2.4-2.7 2.3-39.6 59.9-38.9 60.6.2.3 1.7-.7 3.2-2.1 1.5-1.4 11.1-8.9 21.4-16.7 19.1-14.3 21.4-15.5 26-13 1.2.6 10.9 7.7 21.7 15.8l19.6 14.6h5.7c5.1 0 6.1-.4 8.7-3 2.6-2.7 36.5-55.7 37.8-59.1.7-1.9-.2-1.8-1.8.3zm-86.7 6.5c2.6 1.8 12.3 8.9 21.5 15.8 22 16.4 20.1 16.3 39.4 1.6 7.9-6 15.1-11.4 15.9-12 1.7-1.3.3 1-15.3 25.7-6.6 10.3-13 19.5-14.3 20.4-5.2 3.3-8.7 1.6-31.5-15.1C130.4 148 127.2 146 124 146c-3.3 0-5.9 1.6-19.1 11.5-8.3 6.3-15.4 11.3-15.6 11.1-.6-.5 25.2-41.4 28-44.4 3.2-3.5 10-3.1 15.9 1zM215.4 142.2l-1.9 2.3 2.3-1.9c2.1-1.8 2.7-2.6 1.9-2.6-.2 0-1.2 1-2.3 2.2zM80 162.5c-5.2 5.2-9.2 9.6-8.9 9.7.2.2 4.7-4.1 9.8-9.4 5.2-5.4 9.3-9.8 9-9.8-.2 0-4.7 4.3-9.9 9.5zM66.4 176.2l-2.9 3.3 3.3-2.9c3-2.8 3.7-3.6 2.9-3.6-.2 0-1.6 1.5-3.3 3.2z"/><path d="M297.8 151.5c-.4 1.6-1.2 6.8-1.8 11.5-4 31-16.7 57.3-38.5 79.9-28.7 29.6-65.1 45.1-106.4 45.2-14.1 0-25.6-1.2-35.2-3.7-7.7-1.9-10.2-1.8-16.2 1-17.3 7.8-26.9 11.6-29.9 11.6-5.4 0-12-3.9-14.5-8.6-2-3.6-2.3-5.5-2.4-19.3l-.1-15.3-10.2-10.7c-22.3-23.4-33.4-46.3-38.6-80-1.1-6.8-2.2-12.6-2.5-12.9-1.3-1.3-.3 15 1.5 23.8 5.5 26.8 18 50.5 37.2 70.5l9.7 10.1.3 16c.3 15.6.4 16.2 3.1 20.3 4.5 6.8 7.8 8.3 17.2 7.8 7.4-.3 9.1-.8 22-6.8l14-6.5 5 1.3c18.4 4.8 43.5 6 62.9 2.9 21.4-3.4 42.6-11.8 61.5-24.3 11.4-7.5 31.9-28 39.3-39.3 11.2-16.9 18.7-35.3 22.3-54.2 1.6-8.5 1.8-26.8.3-20.3zM16.4 226.2l-1.9 2.3 2.3-1.9c1.2-1.1 2.2-2.1 2.2-2.3 0-.8-.8-.2-2.6 1.9zM285.9 229.7c-1.3 1.6-1.2 1.7.4.4 1.6-1.3 2.1-2.1 1.3-2.1-.2 0-1 .8-1.7 1.7zM11.9 230.7c-1.3 1.6-1.2 1.7.4.4.9-.7 1.7-1.5 1.7-1.7 0-.8-.8-.3-2.1 1.3zM226.9 288.7c-1.3 1.6-1.2 1.7.4.4 1.6-1.3 2.1-2.1 1.3-2.1-.2 0-1 .8-1.7 1.7z"/></svg>