<svg width="17" height="13" viewBox="0 0 17 13" fill="none" xmlns="http://www.w3.org/2000/svg">
<path d="M15.5059 0.676483H1.49414C0.670272 0.676483 0 1.34675 0 2.17062V10.8294C0 11.6533 0.670272 12.3235 1.49414 12.3235H15.5059C16.3297 12.3235 17 11.6533 17 10.8294V2.17062C17 1.34675 16.3297 0.676483 15.5059 0.676483ZM15.3109 1.67258L15.1114 1.83863L9.09281 6.85034C8.74929 7.13635 8.25064 7.13635 7.90719 6.85034L1.88856 1.83863L1.68914 1.67258H15.3109ZM0.996094 2.39169L5.89993 6.47511L0.996094 9.73875V2.39169ZM15.5059 11.3274H1.49414C1.25348 11.3274 1.05221 11.1559 1.00609 10.9286L6.6986 7.14014L7.26982 7.61581C7.62623 7.91257 8.06315 8.06096 8.50003 8.06096C8.93692 8.06096 9.37381 7.91257 9.73024 7.61581L10.3015 7.14014L15.9939 10.9286C15.9478 11.1559 15.7465 11.3274 15.5059 11.3274ZM16.0039 9.73875L11.1001 6.47514L16.0039 2.39169V9.73875Z" fill="#016189"/>
</svg>
