<svg width="19" height="19" viewBox="0 0 19 19" fill="none" xmlns="http://www.w3.org/2000/svg">
<g clip-path="url(#clip0)">
<path d="M14.8438 19H4.15625C3.17458 19 2.375 18.2012 2.375 17.2188V8.90625C2.375 7.92379 3.17458 7.125 4.15625 7.125H14.8438C15.8254 7.125 16.625 7.92379 16.625 8.90625V17.2188C16.625 18.2012 15.8254 19 14.8438 19ZM4.15625 8.3125C3.82929 8.3125 3.5625 8.5785 3.5625 8.90625V17.2188C3.5625 17.5465 3.82929 17.8125 4.15625 17.8125H14.8438C15.1707 17.8125 15.4375 17.5465 15.4375 17.2188V8.90625C15.4375 8.5785 15.1707 8.3125 14.8438 8.3125H4.15625Z" fill="#016189"/>
<path d="M13.6562 8.3125C13.3285 8.3125 13.0625 8.0465 13.0625 7.71875V4.75C13.0625 2.78588 11.4641 1.1875 9.5 1.1875C7.53588 1.1875 5.9375 2.78588 5.9375 4.75V7.71875C5.9375 8.0465 5.6715 8.3125 5.34375 8.3125C5.016 8.3125 4.75 8.0465 4.75 7.71875V4.75C4.75 2.13038 6.88038 0 9.5 0C12.1196 0 14.25 2.13038 14.25 4.75V7.71875C14.25 8.0465 13.984 8.3125 13.6562 8.3125Z" fill="#016189"/>
<path d="M9.50001 13.4583C8.6268 13.4583 7.91667 12.7482 7.91667 11.875C7.91667 11.0018 8.6268 10.2917 9.50001 10.2917C10.3732 10.2917 11.0833 11.0018 11.0833 11.875C11.0833 12.7482 10.3732 13.4583 9.50001 13.4583ZM9.50001 11.4792C9.2823 11.4792 9.10417 11.6565 9.10417 11.875C9.10417 12.0935 9.2823 12.2708 9.50001 12.2708C9.71771 12.2708 9.89584 12.0935 9.89584 11.875C9.89584 11.6565 9.71771 11.4792 9.50001 11.4792Z" fill="#016189"/>
<path d="M9.5 15.8333C9.17225 15.8333 8.90625 15.5673 8.90625 15.2396V13.0625C8.90625 12.7347 9.17225 12.4688 9.5 12.4688C9.82775 12.4688 10.0938 12.7347 10.0938 13.0625V15.2396C10.0938 15.5673 9.82775 15.8333 9.5 15.8333Z" fill="#016189"/>
</g>
<defs>
<clipPath id="clip0">
<rect width="19" height="19" fill="white"/>
</clipPath>
</defs>
</svg>
