<svg width="20" height="20" viewBox="0 0 20 20" fill="none" xmlns="http://www.w3.org/2000/svg">
<g clip-path="url(#clip0)">
<path d="M19.6757 9.05838C18.5532 7.61921 17.0993 6.42878 15.4711 5.61589C13.8091 4.78609 12.0211 4.35554 10.1546 4.33296C10.1031 4.33156 9.89674 4.33156 9.84533 4.33296C7.97885 4.35558 6.19081 4.78609 4.52878 5.61589C2.90062 6.42878 1.44675 7.61917 0.324255 9.05838C-0.108166 9.6128 -0.108166 10.3872 0.324255 10.9416C1.44671 12.3808 2.90062 13.5712 4.52878 14.3841C6.19081 15.2139 7.97881 15.6445 9.84533 15.667C9.89674 15.6684 10.1031 15.6684 10.1546 15.667C12.021 15.6444 13.8091 15.2139 15.4711 14.3841C17.0993 13.5712 18.5532 12.3808 19.6757 10.9416C20.1081 10.3871 20.1081 9.6128 19.6757 9.05838ZM4.89225 13.6562C3.37194 12.8971 2.01421 11.7854 0.965816 10.4412C0.763199 10.1814 0.763199 9.81858 0.965816 9.55877C2.01417 8.2146 3.37191 7.10288 4.89225 6.34382C5.32405 6.12827 5.76499 5.94187 6.21409 5.78405C5.0587 6.82265 4.33077 8.3278 4.33077 9.99998C4.33077 11.6722 5.05874 13.1775 6.21424 14.2161C5.76514 14.0583 5.32409 13.8718 4.89225 13.6562ZM9.99998 14.8556C7.32256 14.8556 5.14436 12.6774 5.14436 9.99994C5.14436 7.32253 7.32256 5.14437 9.99998 5.14437C12.6774 5.14437 14.8556 7.32257 14.8556 9.99998C14.8556 12.6774 12.6774 14.8556 9.99998 14.8556ZM19.0341 10.4412C17.9858 11.7854 16.6281 12.8971 15.1077 13.6561C14.6764 13.8715 14.2358 14.057 13.7872 14.2147C14.9418 13.1762 15.6692 11.6715 15.6692 9.99994C15.6692 8.32753 14.9411 6.82218 13.7855 5.78359C14.2347 5.94144 14.6758 6.12808 15.1077 6.34374C16.6281 7.1028 17.9858 8.21452 19.0342 9.5587C19.2368 9.81854 19.2368 10.1814 19.0341 10.4412Z" fill="#016189"/>
<path d="M9.99998 7.92201C8.8542 7.92201 7.92206 8.85416 7.92206 9.99994C7.92206 11.1457 8.8542 12.0779 9.99998 12.0779C11.1458 12.0779 12.0779 11.1457 12.0779 9.99994C12.0779 8.85416 11.1458 7.92201 9.99998 7.92201ZM9.99998 11.2643C9.30284 11.2643 8.73561 10.6972 8.73561 9.99994C8.73561 9.30275 9.30276 8.7356 9.99998 8.7356C10.6971 8.7356 11.2643 9.30275 11.2643 9.99994C11.2644 10.6972 10.6971 11.2643 9.99998 11.2643Z" fill="#016189"/>
</g>
<defs>
<clipPath id="clip0">
<rect width="20" height="20" fill="white"/>
</clipPath>
</defs>
</svg>
